<?xml version="1.0" standalone="no"?>
<!DOCTYPE svg PUBLIC "-//W3C//DTD SVG 20010904//EN"
 "http://www.w3.org/TR/2001/REC-SVG-20010904/DTD/svg10.dtd">
<svg version="1.0" xmlns="http://www.w3.org/2000/svg"
 width="1262.000000pt" height="302.000000pt" viewBox="0 0 1262.000000 302.000000"
 preserveAspectRatio="xMidYMid meet">

<g transform="translate(0.000000,302.000000) scale(0.100000,-0.100000)"
fill="#000000" stroke="none">
<path d="M10245 1909 c-385 -601 -704 -1098 -708 -1105 -7 -12 52 -14 358 -14
l365 0 0 180 0 179 -72 3 -72 3 365 269 c200 149 387 287 416 309 l52 38 148
-109 148 -110 5 41 5 42 98 3 97 3 0 -123 0 -123 165 -120 c90 -66 165 -123
165 -127 0 -5 -31 -8 -70 -8 l-70 0 0 -175 0 -175 366 0 c202 1 369 -2 372 -5
3 -3 55 -5 115 -5 91 0 108 2 104 14 -5 12 -1080 1698 -1355 2125 l-54 85 -56
-90 c-32 -49 -56 -92 -54 -96 7 -23 -11 2 -64 87 -32 52 -61 95 -64 95 -3 0
-320 -491 -705 -1091z"/>
<path d="M262 2715 c-74 -34 -138 -105 -199 -219 l-53 -97 0 -135 0 -134 235
0 235 0 0 118 c0 130 5 142 55 142 58 0 65 -19 65 -179 0 -78 -5 -151 -10
-161 -17 -31 -85 -65 -260 -130 -215 -79 -261 -105 -291 -167 -24 -47 -24 -52
-24 -358 l0 -310 28 -57 c36 -73 135 -166 224 -210 l68 -33 350 0 350 0 54 28
c92 47 167 124 222 227 24 45 24 46 24 370 0 400 9 371 -156 482 l-114 76 -5
234 c-5 222 -6 235 -30 282 -38 79 -140 180 -222 221 l-71 35 -211 0 c-203 0
-213 -1 -264 -25z m457 -1106 c172 -37 246 -240 138 -380 -50 -66 -106 -90
-199 -87 -66 3 -82 7 -119 33 -164 115 -134 362 51 425 65 23 65 23 129 9z"/>
<path d="M1745 2728 c-44 -16 -131 -75 -160 -110 -14 -17 -36 -49 -48 -72
l-22 -41 -3 -857 -2 -858 219 0 c121 0 226 -3 235 -6 15 -6 16 67 16 778 0
858 -3 819 58 833 31 6 82 -9 94 -28 4 -7 8 -159 8 -339 l0 -328 220 0 220 0
0 325 c0 312 1 326 20 345 26 26 93 30 133 9 16 -9 17 -58 17 -804 l0 -795
240 0 241 0 -3 848 -3 847 -27 58 c-39 84 -130 171 -198 191 -64 19 -460 23
-507 5 -15 -5 -50 -29 -76 -51 l-49 -41 -41 41 c-23 22 -52 45 -64 51 -29 15
-476 14 -518 -1z"/>
<path d="M4380 2689 c0 -71 -39 -147 -118 -231 -51 -54 -131 -113 -361 -268
-336 -225 -416 -295 -474 -416 l-32 -69 -3 -462 -3 -463 240 0 241 0 0 379 0
379 32 27 c35 30 69 28 103 -6 18 -18 20 -35 23 -189 l3 -170 225 0 224 0 0
159 c0 146 2 160 21 185 12 15 33 32 46 37 34 13 90 -13 103 -46 6 -16 10
-174 10 -391 l0 -364 230 0 231 0 -3 427 -3 428 -24 50 c-37 74 -142 175 -226
216 -69 34 -70 34 -237 37 -196 5 -252 -5 -320 -54 l-49 -35 -47 34 c-26 19
-58 38 -71 42 -20 6 0 19 135 89 340 176 454 263 548 421 l36 59 0 123 0 123
-240 0 -240 0 0 -51z"/>
<path d="M5542 2715 c-73 -34 -137 -104 -199 -217 l-53 -95 0 -137 0 -136 230
0 230 0 0 103 c0 122 11 151 59 155 21 2 40 -3 52 -14 17 -15 19 -32 19 -166
0 -148 0 -149 -26 -173 -34 -32 -102 -63 -239 -111 -60 -22 -146 -57 -189 -79
-72 -36 -83 -45 -106 -90 -25 -49 -25 -51 -28 -345 -3 -285 -2 -299 19 -356
31 -82 139 -191 235 -236 l69 -33 345 0 345 0 67 33 c80 39 173 133 214 219
l29 58 0 320 c0 395 9 366 -156 476 l-114 77 -5 233 -5 234 -34 63 c-43 79
-144 175 -225 213 l-61 29 -210 0 c-202 0 -212 -1 -263 -25z m518 -1129 c165
-82 171 -317 10 -413 -46 -28 -64 -33 -117 -33 -105 0 -177 45 -219 135 -41
87 -29 182 32 253 77 91 186 112 294 58z"/>
<path d="M7078 2725 c-90 -34 -197 -138 -256 -248 l-27 -52 -3 -822 -2 -823
240 0 240 0 2 771 3 770 42 40 c50 46 103 53 147 18 58 -46 56 -11 56 -839 l0
-760 240 0 240 0 -2 828 -3 827 -29 57 c-36 71 -140 174 -216 214 l-55 29
-290 2 c-228 2 -298 -1 -327 -12z"/>
<path d="M8450 2587 l0 -152 37 -63 c53 -90 112 -155 244 -270 67 -58 123
-115 133 -135 14 -31 16 -82 16 -392 l0 -357 -40 -40 c-38 -38 -43 -40 -87
-35 -38 4 -54 12 -80 41 l-33 36 0 210 0 210 -236 0 -235 0 3 -277 3 -278 28
-54 c46 -87 160 -188 258 -228 38 -16 76 -18 295 -18 l251 0 84 42 c107 53
198 134 236 211 l28 57 0 495 c0 467 -1 497 -19 530 -35 64 -68 100 -175 189
-205 171 -241 226 -241 368 l0 63 -235 0 -235 0 0 -153z"/>
<path d="M10740 930 l0 -140 205 0 205 0 0 140 0 140 -205 0 -205 0 0 -140z"/>
<path d="M6964 307 l-191 -292 380 -3 c209 -1 382 0 384 2 4 4 -349 550 -371
573 -8 9 -56 -56 -202 -280z"/>
<path d="M80 494 c-32 -14 -60 -48 -60 -76 0 -25 3 -28 35 -28 24 0 37 6 45
20 9 16 21 20 64 20 61 0 79 -14 74 -57 -3 -28 -4 -28 -83 -34 -95 -6 -111
-12 -130 -50 -19 -35 -20 -184 -2 -219 28 -57 161 -80 237 -42 50 24 59 60 59
233 1 157 -7 196 -42 219 -23 14 -170 25 -197 14z m160 -301 c0 -43 -4 -84 -9
-92 -11 -18 -93 -26 -120 -12 -18 10 -21 20 -21 84 0 44 5 78 12 85 7 7 39 12
75 12 l63 0 0 -77z"/>
<path d="M640 466 c0 -34 1 -35 43 -38 35 -2 43 -7 45 -25 3 -19 10 -23 42
-23 32 0 39 4 42 23 2 16 10 22 28 22 23 0 25 -4 28 -46 l3 -47 -84 -3 c-98
-5 -121 -18 -138 -83 -15 -53 -6 -156 15 -189 10 -14 31 -30 48 -36 43 -15
132 -14 172 3 62 26 66 40 66 237 0 98 -3 185 -6 194 -15 38 -110 59 -156 34
-14 -8 -23 -8 -31 0 -6 6 -35 11 -64 11 l-53 0 0 -34z m230 -286 c0 -89 -8
-100 -74 -100 -53 0 -76 28 -76 91 0 79 9 89 85 89 l65 0 0 -80z"/>
<path d="M1344 491 c-39 -17 -64 -60 -64 -111 0 -46 1 -48 33 -53 43 -6 47 -2
47 43 0 43 18 60 65 60 14 0 35 -5 46 -10 17 -10 19 -23 19 -165 0 -142 -2
-155 -19 -165 -25 -13 -67 -13 -92 0 -15 8 -19 22 -19 60 l0 50 -40 0 -40 0 0
-52 c0 -29 6 -64 13 -78 37 -75 210 -81 261 -9 13 20 16 53 16 196 l0 173 -29
32 c-27 30 -34 33 -102 35 -41 2 -84 -1 -95 -6z"/>
<path d="M1953 485 c-17 -7 -36 -22 -42 -34 -16 -29 -14 -349 2 -381 40 -80
244 -80 284 0 7 14 13 62 13 110 0 48 -6 96 -13 110 -19 39 -72 60 -149 60
-68 0 -68 0 -68 28 0 45 16 52 112 52 l88 0 0 35 0 35 -97 0 c-61 -1 -110 -6
-130 -15z m168 -226 c10 -16 12 -129 3 -153 -5 -12 -21 -16 -69 -16 -75 0 -75
0 -75 112 l0 80 66 -4 c42 -3 69 -9 75 -19z"/>
<path d="M2604 491 c-39 -17 -64 -60 -64 -111 0 -46 1 -48 33 -53 43 -6 47 -2
47 42 0 46 14 61 58 61 71 0 72 -3 72 -175 0 -142 -2 -155 -19 -165 -25 -13
-67 -13 -92 0 -15 8 -19 22 -19 60 l0 50 -40 0 -40 0 0 -58 c0 -37 6 -66 16
-81 51 -72 223 -66 262 9 9 18 12 72 10 197 l-3 173 -28 27 c-24 24 -36 28
-100 30 -39 2 -82 -1 -93 -6z"/>
<path d="M3220 479 c0 -11 14 -33 31 -48 23 -21 30 -35 27 -57 -2 -24 -9 -30
-41 -37 -59 -14 -77 -51 -77 -162 0 -103 11 -128 66 -151 47 -20 141 -18 184
4 47 23 63 72 57 170 -5 84 -25 121 -74 136 -28 9 -31 14 -35 57 -7 69 -41
108 -95 108 -37 1 -43 -2 -43 -20z m160 -228 c5 -11 10 -47 10 -80 0 -51 -3
-62 -22 -75 -26 -18 -80 -21 -109 -6 -16 9 -19 22 -19 89 0 43 3 81 7 84 3 4
32 7 64 7 47 0 60 -4 69 -19z"/>
<path d="M3844 481 c-48 -29 -56 -66 -49 -221 4 -74 11 -150 17 -168 12 -41
52 -62 117 -62 27 0 53 -5 56 -10 10 -16 85 -12 85 4 0 46 -44 76 -112 76 -65
0 -71 9 -79 97 -13 135 -11 200 7 217 22 22 107 21 129 -1 24 -23 17 -140 -8
-155 -11 -6 -17 -22 -17 -45 0 -35 1 -35 32 -29 61 12 88 64 87 166 -1 112
-43 150 -164 150 -51 0 -78 -5 -101 -19z"/>
<path d="M4484 481 c-45 -27 -54 -65 -54 -225 0 -186 15 -217 113 -240 26 -6
27 -4 27 29 0 28 -5 37 -24 44 -13 5 -26 17 -30 26 -3 9 -6 77 -6 150 0 108 3
137 16 149 19 19 67 21 82 3 6 -7 13 -64 14 -128 l3 -114 38 -3 37 -3 0 115
c0 124 8 146 55 146 50 0 56 -19 53 -178 l-3 -147 -27 -13 c-23 -11 -28 -20
-28 -48 0 -35 1 -35 33 -29 40 8 78 35 94 66 19 36 17 309 -2 355 -24 57 -119
83 -185 49 -25 -13 -32 -13 -57 0 -39 21 -112 19 -149 -4z"/>
<path d="M5280 477 c0 -14 13 -35 31 -51 42 -38 38 -77 -9 -87 -68 -14 -98
-76 -89 -184 9 -117 36 -140 164 -140 83 0 85 1 114 33 27 31 29 37 29 123 0
109 -13 140 -68 162 -36 15 -39 19 -39 55 0 59 -45 112 -95 112 -33 0 -38 -3
-38 -23z m158 -292 c3 -91 -6 -105 -70 -105 -56 0 -78 26 -78 96 0 85 9 96 83
92 l62 -3 3 -80z"/>
<path d="M5934 485 c-10 -24 5 -81 27 -109 13 -17 34 -28 60 -32 23 -4 44 -14
49 -25 6 -10 10 -60 10 -113 0 -110 -9 -126 -71 -126 -71 0 -79 10 -79 96 l0
75 -37 -3 -38 -3 -3 -75 c-3 -88 9 -118 58 -142 43 -22 137 -24 186 -3 53 22
66 64 62 201 -4 134 -17 162 -89 180 -44 11 -47 15 -65 82 -5 17 -63 15 -70
-3z"/>
<path d="M8243 490 c-45 -10 -81 -36 -103 -73 -17 -28 -20 -51 -20 -180 0
-167 9 -198 61 -216 18 -6 34 -11 35 -11 9 0 3 67 -6 76 -7 7 -10 47 -8 100
l3 89 63 3 c59 3 63 2 72 -23 15 -39 12 -126 -5 -159 -14 -27 -21 -86 -10 -86
20 0 75 32 84 47 16 31 24 117 16 179 -5 44 -13 64 -36 86 -28 28 -32 29 -109
26 -61 -2 -80 0 -80 10 0 21 49 61 78 64 24 3 27 8 27 38 0 38 -10 43 -62 30z"/>
<path d="M8842 485 c-38 -17 -65 -70 -60 -118 2 -24 9 -32 31 -38 42 -11 53
-3 49 35 -5 44 18 66 68 66 62 0 70 -20 70 -177 0 -120 -2 -135 -20 -153 -24
-24 -67 -26 -99 -4 -19 14 -22 24 -19 61 l3 44 -40 -3 c-39 -3 -40 -4 -43 -45
-4 -60 20 -111 62 -128 42 -18 120 -19 164 -4 58 20 67 47 70 214 4 181 -5
221 -58 247 -43 22 -132 23 -178 3z"/>
<path d="M9487 484 c-27 -14 -47 -49 -47 -80 0 -10 12 -14 40 -14 28 0 40 4
40 14 0 18 22 26 70 26 60 0 70 -7 70 -51 l0 -39 -79 0 c-91 0 -122 -17 -142
-77 -16 -49 -7 -171 15 -206 43 -65 223 -63 270 4 13 20 16 53 16 197 0 105
-4 181 -11 194 -6 11 -26 26 -44 34 -45 19 -162 18 -198 -2z m173 -299 c0 -95
-7 -105 -74 -105 -54 0 -76 28 -76 96 0 85 9 94 85 94 l65 0 0 -85z"/>
<path d="M10165 491 c-11 -5 -29 -19 -40 -31 -18 -20 -20 -39 -23 -192 -3
-141 -1 -173 12 -194 20 -30 52 -50 94 -59 31 -6 32 -6 32 29 0 28 -5 37 -27
48 l-28 13 -3 149 c-3 161 1 176 49 176 51 0 59 -19 59 -146 l0 -115 38 3 37
3 3 115 c3 123 10 140 58 140 44 0 54 -33 54 -177 0 -139 -4 -154 -50 -168
-24 -8 -28 -62 -6 -71 22 -8 103 31 118 58 19 33 18 320 -1 367 -24 55 -120
80 -183 47 -24 -13 -32 -13 -55 0 -30 15 -106 18 -138 5z"/>
<path d="M11725 490 c-3 -5 -20 -10 -36 -10 -41 0 -83 -23 -97 -55 -17 -36
-16 -321 1 -355 21 -42 71 -60 168 -60 163 0 181 19 187 197 7 210 -11 260
-101 270 -26 3 -50 10 -53 14 -7 12 -61 11 -69 -1z m-3 -177 l3 -108 35 0 35
0 3 103 c3 101 3 102 27 102 37 0 45 -28 45 -164 0 -157 -6 -166 -106 -166
-107 0 -104 -4 -104 171 0 146 1 150 23 159 12 5 25 9 29 9 4 1 9 -47 10 -106z"/>
<path d="M12362 485 c-51 -22 -62 -61 -62 -225 0 -185 17 -224 103 -245 26 -7
27 -5 27 28 0 26 -6 39 -25 51 -25 16 -25 18 -25 161 0 164 5 175 71 175 79 0
79 -1 79 -175 0 -144 -1 -155 -20 -165 -14 -8 -20 -21 -20 -45 0 -19 2 -35 5
-35 2 0 23 7 45 16 63 25 70 48 70 231 0 177 -6 198 -60 225 -43 22 -141 23
-188 3z"/>
<path d="M10943 466 l-28 -24 -3 -165 c-4 -193 5 -228 62 -252 81 -34 206 -10
233 45 18 35 17 184 -2 219 -19 38 -35 44 -130 50 l-80 6 0 35 0 35 98 3 97 3
0 34 0 35 -109 0 c-102 0 -112 -2 -138 -24z m185 -208 c7 -7 12 -41 12 -85 0
-64 -3 -74 -21 -84 -27 -14 -109 -6 -120 12 -5 8 -9 49 -9 92 l0 77 63 0 c36
0 68 -5 75 -12z"/>
</g>
</svg>
