<?xml version="1.0" encoding="UTF-8"?>
<svg id="Layer_1" data-name="Layer 1" xmlns="http://www.w3.org/2000/svg" viewBox="0 0 1080 1080">
  <defs>
    <style>
      .cls-1 {
        fill: #fff;
      }

      .cls-2 {
        fill: #005386;
      }

      .cls-3 {
        fill: #007ebd;
      }
    </style>
  </defs>
  <rect class="cls-3" x="75.19" y="374.12" width="929.63" height="331.76"/>
  <polygon class="cls-2" points="832.94 450.1 825.86 461.22 904.16 583.7 918.3 583.7 832.94 450.1"/>
  <path class="cls-1" d="m172.9,600.56h-4.2c-5.67-.03-6.86,3.34-6.86,6.16,0,.4.33.74.74.75h3.68c.41,0,.74-.33.74-.73,0-.89.29-1.48,1.74-1.48h4.16c2.31.02,2.31,1.02,2.31,1.5v3.1l-6.2-.02c-4.97-.01-7.61,2.64-7.61,7.66v4.99c0,5.02,2.65,7.67,7.65,7.69h3.67c5,.02,7.65-2.62,7.65-7.64v-15.76c0-2.82-1.29-6.19-7.47-6.21m-.18,24.87h-3.67c-1.22-.01-2.48-.36-2.48-2.94v-4.98c0-2.59,1.26-2.94,2.48-2.94l6.16.02v7.93c0,2.58-1.25,2.92-2.49,2.91Z"/>
  <path class="cls-1" d="m212.38,600.56c-3.19,0-4.29.12-4.57,1.34h-.77c-.23-1.11-1.03-1.36-3.61-1.36h-3.17c-.4-.01-.75.32-.75.73v3.22c0,.41.35.75.75.75h3.36c1.08.01,1.08.33,1.08.48v1.87c.01.41.36.74.76.74h3.94c.41.01.74-.32.74-.74v-1.78c.01-.49.12-.56.53-.56h1.48c1,0,1.19.41,1.19,1.12v4.22l-6.2-.02c-4.98-.01-7.62,2.62-7.62,7.65v4.25c0,5.02,2.66,7.67,7.66,7.69h3.67c5,.02,7.65-2.62,7.65-7.64v-16.14c0-3.81-2.12-5.82-6.11-5.83m-1.53,24.87h-3.67c-1.22-.01-2.46-.36-2.46-2.94v-4.25c0-2.62,1.24-2.96,2.46-2.96l6.16.02v7.21c0,2.58-1.26,2.92-2.48,2.91Z"/>
  <path class="cls-1" d="m286.36,609.6l-6.24-.02v-2.44c0-.97.26-1.86,2.13-1.86l9.23.05h.01c.19,0,.39-.09.53-.22.14-.15.22-.34.22-.54v-3.27c0-.41-.34-.76-.75-.76l-9.24-.04c-6.08-.02-7.37,3.59-7.37,6.62v15.26c0,5.07,2.67,7.77,7.75,7.79h3.73c5.06.02,7.75-2.66,7.75-7.74v-5.04c0-5.09-2.69-7.78-7.75-7.79m0,15.77h-3.73c-1.24-.01-2.51-.37-2.51-2.98v-8.03l6.24.02c1.23,0,2.5.36,2.5,2.99v5.04c0,2.61-1.27,2.96-2.5,2.95Z"/>
  <path class="cls-1" d="m247.99,600.52h-2.65c-5.04-.02-7.71,2.63-7.71,7.67l.19,2.48c.02.4.35.71.76.71h3.72c.2.01.41-.07.54-.22.15-.15.23-.35.21-.55l-.17-2.44c0-2.59,1.26-2.95,2.5-2.94h2.61c1.24.01,2.51.37,2.51,2.96h0v14.32c0,2.59-1.27,2.94-2.51,2.94h-2.61c-1.24,0-2.5-.36-2.5-2.96l.17-3.49c.02-.21-.06-.4-.21-.55-.13-.15-.34-.23-.54-.24h-3.72c-.41-.01-.74.3-.76.7l-.19,3.53c0,5.06,2.67,7.72,7.71,7.73h2.65c5.07.02,7.74-2.63,7.74-7.64v-14.32h0c0-5.02-2.67-7.68-7.74-7.69"/>
  <path class="cls-1" d="m323.61,600.52h-2.65c-5.05-.02-7.71,2.63-7.71,7.67l.19,2.48c.02.4.34.71.74.71h3.73c.21.01.4-.07.55-.22.14-.15.22-.35.19-.55l-.18-2.44c0-2.59,1.27-2.95,2.52-2.94h2.61c1.24.01,2.5.37,2.5,2.96h0v14.32c0,2.59-1.26,2.94-2.5,2.94h-2.61c-1.25-.01-2.52-.36-2.52-2.96l.18-3.49c.03-.21-.05-.4-.19-.55-.15-.15-.35-.23-.55-.23h-3.73c-.4-.01-.73.3-.74.7l-.19,3.53c0,5.06,2.66,7.72,7.71,7.73h2.65c5.06.02,7.75-2.63,7.75-7.64v-14.32h0c0-5.02-2.69-7.68-7.75-7.69"/>
  <path class="cls-1" d="m362.86,609.91l.13-2.08c.11-2.28-.44-3.92-1.66-4.88-.82-.63-1.26-1.23-1.27-1.68,0-.4-.34-.73-.74-.73h-4.26c-.41-.01-.74.32-.74.74,0,2.01.74,3.38,2.21,4.1.94.45,1.38,1.21,1.4,2.33l-.22,2.16c-4.72.13-7.22,2.76-7.22,7.65v4.98c0,5.02,2.65,7.67,7.65,7.69h3.68c5,.02,7.64-2.62,7.64-7.64v-4.99c0-4.65-2.28-7.28-6.61-7.64m-7.2,7.61c0-2.59,1.25-2.94,2.48-2.94h3.68c1.23.01,2.49.37,2.49,2.96v4.98c0,2.58-1.26,2.92-2.49,2.91h-3.68c-1.23-.01-2.48-.36-2.48-2.94v-4.98Z"/>
  <path class="cls-1" d="m400.29,600.51h-4.07c-4.99-.02-7.61,2.62-7.61,7.66l.37,12.5c0,2.09.42,3.98,1.25,5.65.92,1.82,2.92,2.75,5.95,2.77l1.92-.02c1.82,0,2.11.36,2.11.36,0,.41.33.75.74.75h4.05c.41.01.74-.33.74-.74,0-2.32-1.32-5.09-7.62-5.1l-.92-.02c-1.06,0-1.85-.26-2.32-.77-.48-.53-.73-1.49-.73-2.89l-.36-12.49c0-2.59,1.26-2.94,2.47-2.94h3.99c1.22.01,2.48.38,2.48,2.96v3.67c0,3.22-1.26,3.42-1.68,3.48-.35.07-.62.37-.62.73v3.44c0,.21.09.41.24.56.16.14.37.21.57.19,3.04-.27,6.66-1.95,6.66-8.39v-3.67c0-5.01-2.63-7.67-7.61-7.69"/>
  <path class="cls-1" d="m447.24,600.52h-1.13c-2.12,0-3.82.61-5.08,1.87-1.26-1.27-2.95-1.9-5.06-1.9h-1.32c-4.97-.02-7.61,2.63-7.61,7.64v14.32c0,3.22,1.41,7.17,8.13,7.69.22.02.42-.05.57-.2.16-.14.24-.34.24-.54v-3.25c0-.37-.27-.68-.64-.74-2.82-.42-3.13-1.88-3.13-2.95v-14.32c0-2.59,1.25-2.95,2.47-2.94h1.29c1.22,0,2.48.37,2.48,2.96v11.55c0,.41.33.74.74.75h3.68c.41.01.74-.32.74-.73v-11.56c0-2.59,1.25-2.95,2.49-2.94h1.09c1.23,0,2.48.37,2.48,2.96v14.32c0,1.07-.32,2.52-3.14,2.93-.36.06-.64.37-.64.74v3.25c0,.2.09.4.24.54.14.13.32.21.5.21.02,0,.04,0,.05,0,6.73-.48,8.14-4.42,8.14-7.64v-14.32c0-5.01-2.62-7.67-7.6-7.69"/>
  <path class="cls-1" d="m486.34,609.91l.13-2.08c.11-2.28-.45-3.92-1.66-4.88-.8-.63-1.25-1.23-1.26-1.68-.01-.4-.35-.73-.75-.73h-4.25c-.4-.01-.74.32-.74.74,0,2.01.74,3.38,2.2,4.1.95.45,1.39,1.21,1.42,2.33l-.23,2.16c-4.72.13-7.21,2.76-7.21,7.65v4.99c0,5.02,2.64,7.67,7.65,7.69h3.68c4.99.02,7.64-2.62,7.64-7.64v-4.99c0-4.65-2.29-7.28-6.62-7.64m-7.19,7.61c0-2.59,1.25-2.94,2.49-2.94h3.68c1.23.01,2.48.37,2.48,2.96v4.98c0,2.58-1.25,2.92-2.48,2.91h-3.68c-1.23-.01-2.49-.36-2.49-2.94v-4.98Z"/>
  <path class="cls-1" d="m523.97,605.69h-.67c-.74-.23-1.16-1.75-1.16-4.24,0-.41-.32-.74-.73-.74h-3.68c-.42-.01-.75.32-.75.73,0,5.67,2.09,8.68,6.26,8.98h.66c1.39.31,2,1.23,2,2.96v9.15c0,2.58-1.26,2.92-2.48,2.91h-3.68c-1.22-.01-2.48-.36-2.48-2.9l.37-6.09c.01-.21-.06-.4-.21-.56-.14-.15-.33-.23-.54-.23h-3.68c-.39,0-.72.29-.74.69l-.37,6.14c0,5.02,2.65,7.67,7.64,7.69h3.68c5,.02,7.65-2.62,7.65-7.64v-9.15c0-4.62-2.43-7.29-7.1-7.7"/>
  <path class="cls-1" d="m698.6,600.52h-2.66c-5.04-.02-7.71,2.63-7.7,7.67l.19,2.48c.02.4.35.71.75.71h3.73c.21.01.41-.07.55-.22.13-.15.22-.35.2-.55l-.18-2.44c0-2.59,1.27-2.95,2.52-2.94h2.6c1.23.01,2.51.37,2.51,2.96h0v14.32c0,2.59-1.28,2.94-2.51,2.93h-2.6c-1.25,0-2.52-.36-2.52-2.96l.18-3.49c.02-.21-.07-.4-.2-.55-.15-.15-.35-.23-.55-.23h-3.73c-.4-.01-.73.3-.75.7l-.19,3.53c0,5.06,2.66,7.72,7.7,7.73h2.66c5.06.02,7.74-2.63,7.74-7.64v-14.32h0c0-5.02-2.68-7.68-7.74-7.69"/>
  <path class="cls-1" d="m659.64,609.3h-3.53c-.82-.01-1.7.22-2.63.67.61-2.54,2.27-4.03,5.05-4.53h1.06c.41,0,.74-.33.74-.74v-3.24c0-.4-.33-.74-.74-.74h-1.21c-6.06.38-9.45,3.5-10.12,9.36v12.4c0,5.81,3.22,7.39,5.91,7.68.03,0,.06,0,.08,0,.18,0,.37-.06.5-.19.16-.15.25-.34.25-.55v-3.25c0-.31-.2-.6-.5-.7-.88-.32-1.07-1.79-1.07-2.98v-5.53c0-2.59,1.25-2.94,2.47-2.94h3.7c1.22.01,2.47.37,2.47,2.96v5.53c0,1.71-.4,2.7-1.22,2.96-.32.09-.52.39-.52.71v3.25c0,.22.09.41.25.56.16.14.37.21.57.19,2.78-.27,6.09-1.83,6.09-7.65v-5.53c0-5.02-2.63-7.68-7.6-7.69"/>
  <path class="cls-1" d="m738.85,600.55h-4.2c-5.68-.03-6.87,3.33-6.87,6.17,0,.4.33.74.74.75h3.67c.42.01.75-.33.75-.73,0-.9.29-1.48,1.74-1.48h4.15c2.29.02,2.29,1.02,2.29,1.5v3.1l-6.2-.02c-4.97-.01-7.61,2.64-7.61,7.66v4.98c0,5.02,2.65,7.68,7.66,7.69h3.67c5.01.02,7.65-2.63,7.65-7.64v-15.76c0-2.84-1.3-6.2-7.47-6.22m-.19,24.88h-3.67c-1.23-.01-2.49-.36-2.49-2.94v-4.98c0-2.59,1.25-2.94,2.49-2.94l6.15.02v7.92c0,2.58-1.25,2.92-2.48,2.92Z"/>
  <path class="cls-1" d="m787.51,600.52h-1.13c-2.11,0-3.82.61-5.07,1.88-1.26-1.27-2.96-1.9-5.06-1.9h-1.32c-4.98-.02-7.61,2.63-7.61,7.64v14.32c0,3.22,1.41,7.17,8.14,7.69.21.01.41-.06.56-.2.15-.14.24-.34.24-.54v-3.25c0-.37-.28-.68-.64-.74-2.81-.42-3.13-1.88-3.13-2.95v-14.32c0-2.59,1.24-2.95,2.47-2.94h1.29c1.23,0,2.49.37,2.49,2.96v11.56c0,.41.34.74.74.74h3.69c.4.01.74-.32.74-.73v-11.56c0-2.59,1.26-2.94,2.48-2.94h1.09c1.24,0,2.49.37,2.49,2.96v14.32c0,1.06-.33,2.52-3.13,2.93-.37.06-.64.37-.64.74v3.25c0,.21.09.41.23.55.15.13.33.21.51.21h.05c6.74-.49,8.15-4.43,8.15-7.65v-14.32c0-5.01-2.64-7.67-7.62-7.69"/>
  <path class="cls-1" d="m827.46,609.85l-6.16-.02v-2.4c0-.95.25-1.84,2.11-1.83l9.1.04c.2-.03.39-.07.53-.21.14-.15.21-.33.21-.53v-3.23c0-.41-.32-.75-.74-.75l-9.1-.04c-6.02-.02-7.29,3.55-7.29,6.54v15.06c0,5.02,2.66,7.68,7.65,7.69h3.68c5,.02,7.65-2.63,7.65-7.64v-4.98c0-5.01-2.65-7.68-7.65-7.7m0,15.58h-3.68c-1.22-.01-2.48-.36-2.48-2.94v-7.92l6.16.02c1.23,0,2.48.36,2.48,2.95v4.98c0,2.58-1.25,2.92-2.48,2.92Z"/>
  <path class="cls-1" d="m870.99,601.56h-1.33v-.27c0-.42-.32-.76-.74-.76h-3.32c-.4-.01-.74.32-.74.74v.26h-1.15c-4.98-.02-7.61,2.63-7.61,7.64v13.29c0,5.02,2.64,7.68,7.65,7.69l7.24.02c5,.01,7.65-2.63,7.65-7.65v-13.29c0-5.01-2.65-7.67-7.65-7.68m-5.38,17.22h3.32c.42.01.74-.33.74-.74v-12.05h1.33c1.22,0,2.47.36,2.47,2.96v13.56c0,2.59-1.25,2.92-2.47,2.92l-7.24-.02c-1.22,0-2.48-.35-2.48-2.93v-13.56c0-2.6,1.26-2.95,2.48-2.94h1.12v12.05c0,.41.33.75.74.75Z"/>
  <path class="cls-1" d="m910.95,600.55h-3.71c-4.97-.02-7.6,2.63-7.6,7.64v14.28c0,4.35,2.47,7.01,7.17,7.68.21.03.43-.03.6-.17.16-.14.25-.35.25-.56v-3.25c0-.37-.26-.68-.63-.73-1.54-.24-2.22-1.15-2.22-2.95v-14.28c0-2.59,1.25-2.94,2.47-2.94h3.68c1.23.01,2.48.37,2.48,2.96v14.28c0,1.8-.68,2.7-2.22,2.94-.37.05-.63.36-.63.73v3.25c0,.22.09.42.25.56.14.12.31.18.49.18.03,0,.07,0,.1,0,4.69-.65,7.17-3.29,7.17-7.65v-14.28c0-5.01-2.65-7.68-7.65-7.69"/>
  <path class="cls-1" d="m335.72,465.92l-21.25-.06c-2.47,0-4.77.84-6.83,2.54-1.46,1.2-2.83,2.54-4.12,4.02-1.22-1.49-2.29-2.71-3.32-3.73-1.89-1.9-4.42-2.88-7.47-2.89l-21.86-.06c-4,0-8.24,1.82-12.57,5.51-4.48,3.77-6.74,8.39-6.74,13.74v98.7l28.76.08v-92.97c0-1.3.36-2.17,1.18-2.82.85-.67,1.86-1,3.06-1,1.65,0,2.93.36,3.86,1.02.55.45,1.19,1.15,1.19,2.83v38.11l26.77.07v-38.11c0-1.11.34-1.96,1.09-2.72.74-.73,2-1.11,3.76-1.1,1.7,0,3.06.34,3.98.94.47.33,1.06.99,1.06,2.9v92.97l28.76.08v-98.7c0-3.98-1.86-8.22-5.52-12.56-3.74-4.49-8.37-6.77-13.8-6.79"/>
  <path class="cls-1" d="m460.81,521.38c-5.42-4.74-10.54-7.15-15.24-7.17l-16.45-.04c-3.08,0-5.76.67-7.96,2.05l-.13.12c-.97.69-2.38,1.76-4.25,3.2-2.97-2.68-5.26-4.17-7.17-4.72-.29-.08-.59-.15-.91-.21,2.37-1.26,5.67-2.9,10.14-5.1,8.71-4.43,15.77-8.67,20.97-12.53,5.76-4.05,10.15-9.44,13.06-16.03l.2-.49v-14.36l-28.91-.08v2.53c0,6.67-4.85,13.67-14.3,20.76-3.17,2.12-7.95,5.26-14.32,9.47-6.37,4.2-11.15,7.37-14.41,9.58-10.88,7.81-16.41,15.81-16.41,23.81v51.8l28.73.08v-43.6c0-1.01.52-2.18,1.54-3.41,1.15-1.3,2.19-1.45,2.89-1.45,1.38,0,2.48.48,3.46,1.41.97.97,1.41,2.08,1.41,3.47v18.34l27.66.07v-18.35c0-1.15.52-2.22,1.68-3.41.9-.98,1.97-1.45,3.36-1.45,1.39,0,2.61.52,3.7,1.5,1.01.95,1.49,2.02,1.49,3.38v43.6l28.11.07v-46.68c0-5.94-2.66-11.37-7.93-16.18"/>
  <path class="cls-1" d="m618.67,465.86l-26.8-.07c-5.68-.01-11.08,2.87-16.04,8.57-4.87,5.6-7.26,10.6-7.26,15.34v94.11l29.53.08v-90.39c0-1.51.72-2.95,2.25-4.49,1.43-1.53,2.96-2.28,4.65-2.28,2.61,0,4.42.74,5.48,2.22,1.66,2.32,2.01,3.78,2.01,4.59v90.39l29.34.08v-94.11c0-5.98-2.68-11.58-8-16.61-5.19-4.93-10.3-7.42-15.15-7.43"/>
  <path class="cls-1" d="m713.19,493.46c-5.96-4.8-10.32-8.75-12.93-11.72-2.34-2.62-3.5-7.14-3.5-13.43v-2.54l-28.38-.08-.27,18.22.27.52c2.6,5.58,6.38,10.72,11.33,15.41,2.3,1.9,5.65,4.79,10.19,8.8,2.71,2.49,4.15,4.81,4.15,6.68v40.98c0,.38-.19,1.46-1.81,3.41-1.43,1.54-2.99,2.28-4.78,2.28-2.27,0-3.99-.69-5.32-2.22-1.94-1.98-2.14-3.1-2.14-3.5v-24.2l-28.48-.08v28.68c0,5.96,2.86,11.35,8.39,15.95,5.24,4.79,10.28,7.22,15.07,7.24l22.79.06c4.45.01,9.62-2.13,15.74-6.49,6.36-4.49,9.59-10.04,9.59-16.57v-52.91c0-4.38-3.23-9.12-9.9-14.5"/>
  <path class="cls-1" d="m555.32,521.37c-1.76-1.63-4.66-3.64-8.95-6.2-4.36-2.47-4.59-3.81-4.59-3.81l.16-22.36c0-5.39-2.62-10.69-7.87-15.75-5.33-4.94-10.5-7.47-15.44-7.48l-16.91-.05c-4.26-.01-7.96,1.15-10.96,3.41-2.78,2.14-5.02,4.56-6.62,7.18-1.58,2.62-3.42,6.05-5.46,10.17l-.26.51v16.24l28.45.08v-13.22c0-1.61,1.56-2.95,3.48-2.95,1.93,0,3.49,1.35,3.49,2.96v16.23c0,1.57-2.9,3.69-6.5,5.25-.02.02-.24.14-.34.17,0,0-2.66,1.11-4.41,1.73-8.42,2.89-14.33,5.21-18.04,7.18-4.09,2.11-6.12,7.09-6.12,14.84v25.12c0,5.82,2.69,11.2,8.07,16.11,5.4,4.72,10.54,7.11,15.23,7.12l34.01.09c5.62.02,11.02-2.68,16.09-8.06,4.77-5.49,7.08-10.41,7.08-15.05v-28.97c0-4.76-1.22-8.29-3.58-10.49m-37.04,40.95c-7.87-.02-14.25-6.41-14.25-14.28s6.38-14.23,14.25-14.21c7.87.02,14.25,6.42,14.25,14.28s-6.38,14.22-14.25,14.2Z"/>
  <path class="cls-1" d="m238.31,521.37c-1.75-1.62-4.66-3.64-8.95-6.2-4.37-2.47-4.59-3.81-4.59-3.81l.16-22.36c0-5.39-2.65-10.69-7.87-15.75-5.31-4.94-10.52-7.47-15.44-7.48l-16.92-.04c-4.25-.01-7.93,1.14-10.93,3.41-2.81,2.14-5.02,4.56-6.63,7.17-1.58,2.62-3.42,6.05-5.46,10.17l-.27.51v16.25l28.46.07v-13.22c0-1.61,1.56-2.95,3.49-2.94,1.92,0,3.48,1.35,3.48,2.96v16.23c0,1.57-2.9,3.69-6.51,5.25,0,.02-.21.15-.32.17,0,0-2.67,1.12-4.42,1.73-8.44,2.89-14.34,5.21-18.04,7.18-4.08,2.11-6.14,7.09-6.14,14.84v25.12c0,5.82,2.72,11.2,8.08,16.11,5.42,4.72,10.53,7.11,15.22,7.12l34.04.09c5.61.02,10.99-2.68,16.08-8.06,4.75-5.49,7.08-10.41,7.08-15.05v-28.97c0-4.76-1.22-8.29-3.58-10.49m-37.03,40.95c-7.88-.02-14.24-6.41-14.24-14.28s6.36-14.23,14.24-14.21c7.87.02,14.24,6.42,14.24,14.28s-6.38,14.22-14.24,14.2Z"/>
  <polygon class="cls-1" points="777.46 561.61 768.57 561.58 818.57 524.56 837.01 538.31 837.01 532.68 848.57 532.72 848.57 546.92 868.6 561.88 859.75 561.86 859.75 583.7 904.16 583.7 818.57 449.82 732.76 583.65 749.44 583.7 777.46 583.7 777.46 561.61"/>
  <polygon class="cls-1" points="831.08 566.11 805.94 566.03 805.94 583.7 831.08 583.7 831.08 566.11"/>
  <polygon class="cls-2" points="614.43 630.18 590.92 594.27 567.41 630.18 614.43 630.18"/>
</svg>